<svg width="99" height="59" viewBox="0 0 99 59" fill="none" xmlns="http://www.w3.org/2000/svg">
<g clip-path="url(#clip0_13_140)">
<path fill-rule="evenodd" clip-rule="evenodd" d="M39.6985 19.7576C41.6971 17.3355 43.0387 14.5325 43.6136 11.4573C43.86 10.151 45.3111 1.5514 42.9291 1.90518C42.2184 2.03134 41.4135 3.65473 41.06 4.36772C41.0322 4.42373 41.0072 4.47412 40.9853 4.51773C40.2734 5.79679 39.6985 7.13028 39.2331 8.46376C37.9737 11.9744 37.0976 15.6483 36.5774 19.3222C36.3857 20.4379 36.3036 21.6081 36.3036 22.7783C37.5082 21.9347 38.6855 20.9006 39.6985 19.7576ZM17.0019 30.7248C16.5638 32.4937 17.1661 35.9227 19.7945 35.2151C22.0121 34.6436 22.3133 31.6501 21.93 29.5818C20.8348 29.5818 19.7945 29.4186 19.1374 28.6838C18.6993 28.2484 18.5898 27.568 18.8636 26.9965L18.6993 27.2142C18.6061 27.4458 18.4513 27.6598 18.2948 27.8762C18.1753 28.0413 18.0549 28.2078 17.9601 28.3844C17.5768 29.1192 17.2209 29.9084 17.0019 30.7248ZM37.8368 5.49743C39.014 2.99374 41.2317 -1.06114 44.654 0.272342C46.8753 1.11348 46.7978 3.78261 46.7406 5.7539C46.7386 5.82353 46.7366 5.89229 46.7347 5.96007C46.68 8.76312 46.2145 11.5389 45.3384 14.2059C43.8052 18.8051 40.383 22.4246 36.2488 24.9555C36.4131 30.4799 38.0558 35.8683 42.0804 40.0048C42.9565 40.9301 40.5472 41.9642 39.7806 41.1478C35.8108 37.0929 34.0038 31.8406 33.5931 26.3706C30.9374 27.6496 28.0627 28.5749 25.1059 29.092L24.5035 29.2281C24.6678 31.514 23.9286 34.2354 22.7513 35.4056C19.3838 38.753 13.9081 36.8752 14.1819 32.0039C14.3188 30.0173 17.1114 22.7783 20.2325 25.0099C20.4242 25.146 20.5611 25.3365 20.5611 25.6086C20.6706 25.5814 20.7527 25.5814 20.8348 25.5814C22.2859 25.3637 23.6274 26.1529 24.0929 27.4864L24.7773 27.3503C27.8437 26.8604 30.7458 25.8263 33.4836 24.384C33.4289 17.8526 35.2906 11.0763 37.8368 5.49743ZM84.0787 45.883C85.2525 50.1972 78.4794 52.7529 75.5085 53.8739L75.4819 53.8839C72.1144 55.1358 68.6921 56.1155 65.1877 56.8503L65.1316 56.8624C63.8404 57.1418 60.8785 57.7826 60.1501 56.4149C59.712 55.5984 60.3144 54.8092 60.8072 54.2105C62.6924 51.8119 65.2238 49.8721 67.5962 48.0541C67.8078 47.8919 68.0182 47.7308 68.2267 47.5703C70.9951 45.43 73.9076 43.4328 76.8067 41.4448L77.3984 41.0389C80.2458 41.9642 83.4217 43.4338 84.0787 45.883ZM91.8268 29.3369C88.8749 30.7541 86.0703 32.7129 83.305 34.6444C82.3 35.3463 81.3003 36.0446 80.3005 36.7119C80.0176 36.9043 79.7346 37.0947 79.4522 37.2848C78.6963 37.7936 77.9443 38.2996 77.2068 38.8346C75.8652 38.4264 74.4689 38.0998 73.0726 37.8277C71.4573 37.5283 69.8146 37.3106 68.1719 37.1745C68.0535 37.1689 67.934 37.1645 67.8135 37.16C67.3489 37.1427 66.8706 37.1249 66.3923 37.0385L67.1589 36.467C69.5135 34.9158 71.6763 33.1197 73.7297 31.2419C74.9891 29.99 76.7687 28.0306 76.358 26.0712C75.8379 23.5947 72.662 23.1321 70.5812 23.4042C67.8434 23.7036 65.2698 24.7922 62.9153 26.1256C62.751 25.9079 62.4772 25.7174 62.2035 25.7174C59.5204 25.2004 56.7278 25.1187 53.99 25.4181V24.901C53.9952 24.1203 53.9925 23.3307 53.9897 22.5359V22.5353C53.9781 19.1474 53.9662 15.6668 54.5649 12.3826C54.7839 11.1307 52.2104 11.4301 52.0187 12.5458C51.2795 16.8185 51.3069 21.3904 51.4164 25.8535C48.7333 26.425 46.1598 27.3231 43.7231 28.6293C42.2173 29.4458 43.5862 30.8337 44.873 30.1261C46.9537 28.9831 49.1714 28.1939 51.4985 27.7041V29.6907C51.4985 30.0999 51.4935 30.5149 51.4884 30.9336L51.4884 30.9342C51.4645 32.9099 51.4396 34.9666 51.9366 36.8752C52.8127 40.1409 56.2076 40.0864 58.3157 37.8277C59.3835 36.6575 57.0016 36.222 56.1802 37.0657C54.2901 39.0768 54.0567 33.5747 53.9948 32.1181L53.99 32.0039C53.9717 30.9677 53.9778 29.9073 53.9839 28.8551C53.9869 28.332 53.99 27.8109 53.99 27.2959C56.2897 27.0237 58.6443 27.0781 60.9441 27.5136C60.6155 28.2483 62.1487 28.8198 63.0248 28.2483C65.3793 26.7788 68.8564 24.7922 71.7585 25.282C74.7427 25.7174 73.7571 28.2211 72.3608 29.7723C70.855 31.378 69.1302 32.8475 67.3232 34.0994C67.036 34.3097 66.6382 34.5408 66.2046 34.7927C65.0678 35.4531 63.6856 36.2561 63.4081 37.2018C63.0796 38.372 64.3116 38.6985 65.2151 38.889C66.5271 39.1357 67.8391 39.2557 69.1532 39.3758C70.8831 39.5339 72.6169 39.6924 74.3594 40.1409L75.0165 40.3042C71.6216 42.5901 68.2814 44.9305 65.1056 47.4887C64.8625 47.6772 64.6122 47.8693 64.3569 48.0652L64.3563 48.0656C61.9947 49.8779 59.2091 52.0157 57.8503 54.6187C57.248 55.6256 57.3301 56.8503 57.9872 57.83C59.0276 59.2179 61.3547 59.1363 62.8879 59.0274C66.4436 58.8225 70.1205 57.5812 73.5079 56.4376C73.7199 56.3661 73.9308 56.2949 74.1404 56.2244L74.4788 56.1087C78.6821 54.6738 84.6179 52.6473 86.3237 48.1962C87.8022 44.3046 84.3799 41.8554 81.1766 40.3314C80.6017 40.0592 80.0267 39.8143 79.4244 39.5966L81.9432 37.8549C82.7237 37.3197 83.5055 36.7685 84.2916 36.2143L84.2917 36.2142C87.0628 34.2605 89.8873 32.2693 92.8945 30.8065C94.5099 30.1261 93.1136 28.7382 91.8268 29.3369ZM13.4974 21.0094C11.4291 20.3768 10.5679 22.6288 9.99339 24.131L9.93823 24.2751C9.31974 25.9437 8.80423 27.6439 8.28943 29.3417C7.84712 30.8004 7.40533 32.2574 6.89923 33.6911C6.4338 35.2423 5.83148 36.7663 5.14702 38.2359C4.87324 38.8346 4.57208 39.4333 4.24354 40.0048L4.10665 40.1408C4.09296 40.1 4.07242 40.0592 4.04847 40.0116C4.02451 39.9639 3.99713 39.9095 3.96975 39.8415C3.80548 39.1883 3.66859 38.5352 3.55908 37.8549C3.2853 36.1132 3.1484 34.3442 3.09365 32.5753C3.01151 30.6976 2.92938 28.8742 2.81986 26.9965C2.81462 26.8142 2.81239 26.6219 2.8101 26.4242C2.80041 25.5891 2.7896 24.6579 2.54608 23.9757C2.10803 22.8055 -0.410777 23.5403 0.0272762 24.6288C0.248081 25.2274 0.262845 25.9577 0.276585 26.6372C0.281585 26.8846 0.286449 27.1252 0.301059 27.3503C0.321809 27.804 0.340812 28.2578 0.359832 28.712C0.416103 30.0556 0.472534 31.4031 0.574843 32.7658C0.609579 33.2216 0.640789 33.6686 0.671606 34.11C0.762232 35.4079 0.849447 36.6571 1.0129 37.9365C1.02165 38.0114 1.03041 38.0876 1.0393 38.1649C1.16932 39.2962 1.32697 40.6679 1.91638 41.6104C3.25792 43.597 5.61245 41.7737 6.57069 40.3586C8.1003 37.9726 8.98265 35.1243 9.82624 32.4011L9.8263 32.4009C9.96415 31.9559 10.101 31.5143 10.2394 31.0786C10.4271 30.4922 10.6148 29.8972 10.8034 29.2991C11.1926 28.0651 11.5859 26.8183 11.9916 25.6086C12.0959 25.3286 12.1883 25.0526 12.2794 24.7805C12.4273 24.3385 12.5718 23.907 12.7582 23.4859C13.032 23.0504 13.3331 22.615 13.6343 22.234C13.9902 21.8802 14.3735 21.2543 13.4974 21.0094Z" fill="#292278"/>
<path d="M94.4278 12.9265C93.5244 12.9265 92.8125 12.1918 92.8125 11.3209C92.8125 10.4501 93.5517 9.71529 94.4278 9.71529C95.3313 9.71529 96.0432 10.4501 96.0432 11.3209C96.0432 12.1918 95.3313 12.9265 94.4278 12.9265ZM89.1986 12.9265C88.2951 12.9265 87.5833 12.1918 87.5833 11.3209C87.5833 10.4501 88.3225 9.71529 89.1986 9.71529C90.1021 9.71529 90.8139 10.4501 90.8139 11.3209C90.8139 12.219 90.1021 12.9265 89.1986 12.9265ZM83.9967 12.9265C83.0932 12.9265 82.3814 12.1918 82.354 11.3209C82.354 10.4229 83.0932 9.71529 83.9693 9.68808C84.8728 9.68808 85.5846 10.4229 85.612 11.2937C85.612 12.219 84.8728 12.9265 83.9967 12.9265ZM98.1239 0.81631C97.549 0.299243 96.8098 -0.000110899 96.0705 0.0543171C95.4682 0.0815312 94.8933 0.190387 94.3183 0.353671C93.9077 0.435313 92.265 0.870738 92.265 0.870738L76.3582 5.00727C76.057 5.08891 75.838 5.41548 75.838 5.71483C75.838 6.01419 76.057 6.31354 76.3582 6.4224L78.4389 7.23882C78.7401 7.32046 78.9591 7.53817 79.1781 7.75588C79.3424 8.02802 79.4519 8.27295 79.4519 8.57231V15.784C79.4519 17.0903 80.3554 18.2605 81.6422 18.5599L95.1123 22.8052C96.6181 23.3223 98.2334 22.5331 98.8084 21.0635C98.9453 20.7642 98.9726 20.4104 98.9726 20.1111V2.88458C98.9453 2.12258 98.6441 1.3878 98.1239 0.81631Z" fill="#5232C9"/>
</g>
<defs>
<clipPath id="clip0_13_140">
<rect width="99" height="59" fill="white"/>
</clipPath>
</defs>
</svg>
